HIERARCHY
ROOT hip
{
  OFFSET 0 0 0
  CHANNELS 6 Xposition Yposition Zposition Zrotation Yrotation Xrotation
  JOINT abdomen
  {
    OFFSET 0 20.6881 -0.73152
    CHANNELS 3 Zrotation Xrotation Yrotation
    JOINT chest
    {
      OFFSET 0 11.7043 -0.48768
      CHANNELS 3 Zrotation Xrotation Yrotation
      JOINT neck
      {
        OFFSET 0 22.1894 -2.19456
        CHANNELS 3 Zrotation Xrotation Yrotation
        JOINT head
        {
          OFFSET -0.24384 7.07133 1.2192
          CHANNELS 3 Zrotation Xrotation Yrotation
          JOINT leftEye
          {
            OFFSET 4.14528 8.04674 8.04672
            CHANNELS 3 Zrotation Xrotation Yrotation
            End Site
            {
              OFFSET 1 0 0
            }
          }
          JOINT rightEye
          {
            OFFSET -3.6576 8.04674 8.04672
            CHANNELS 3 Zrotation Xrotation Yrotation
            End Site
            {
              OFFSET 1 0 0
            }
          }
        }
      }
      JOINT rCollar
      {
        OFFSET -2.68224 19.2634 -4.8768
        CHANNELS 3 Zrotation Xrotation Yrotation
        JOINT rShldr
        {
          OFFSET -8.77824 -1.95073 1.46304
          CHANNELS 3 Zrotation Xrotation Yrotation
          JOINT rForeArm
          {
            OFFSET -28.1742 -1.7115 0.48768
            CHANNELS 3 Zrotation Xrotation Yrotation
            JOINT rHand
            {
              OFFSET -22.5879 0.773209 7.07136
              CHANNELS 3 Zrotation Xrotation Yrotation
              JOINT rThumb1
              {
                OFFSET -1.2192 -0.487915 3.41376
                CHANNELS 3 Zrotation Xrotation Yrotation
                JOINT rThumb2
                {
                  OFFSET -3.37035 -0.52449 3.41376
                  CHANNELS 3 Zrotation Xrotation Yrotation
                  End Site
                  {
                    OFFSET -1.78271 -1.18214 1.43049
                  }
                }
              }
              JOINT rIndex1
              {
                OFFSET -7.75947 0.938293 5.60832
                CHANNELS 3 Zrotation Xrotation Yrotation
                JOINT rIndex2
                {
                  OFFSET -2.54057 -0.884171 1.56538
                  CHANNELS 3 Zrotation Xrotation Yrotation
                  End Site
                  {
                    OFFSET -1.62519 -0.234802 1.16502
                  }
                }
              }
              JOINT rMid1
              {
                OFFSET -8.24714 1.18213 3.41376
                CHANNELS 3 Zrotation Xrotation Yrotation
                JOINT rMid2
                {
                  OFFSET -3.10165 -0.590103 1.0647
                  CHANNELS 3 Zrotation Xrotation Yrotation
                  End Site
                  {
                    OFFSET -2.48547 -0.328903 0.83742
                  }
                }
              }
              JOINT rRing1
              {
                OFFSET -8.82822 0.546677 1.51678
                CHANNELS 3 Zrotation Xrotation Yrotation
                JOINT rRing2
                {
                  OFFSET -2.60934 -0.819778 -0.0198488
                  CHANNELS 3 Zrotation Xrotation Yrotation
                  End Site
                  {
                    OFFSET -2.33842 -0.294052 0.168128
                  }
                }
              }
              JOINT rPinky1
              {
                OFFSET -8.27202 -0.0477905 -0.4584
                CHANNELS 3 Zrotation Xrotation Yrotation
                JOINT rPinky2
                {
                  OFFSET -1.82734 -0.647385 -0.700984
                  CHANNELS 3 Zrotation Xrotation Yrotation
                  End Site
                  {
                    OFFSET -1.69225 -0.51767 -0.607171
                  }
                }
              }
            }
          }
        }
      }
      JOINT lCollar
      {
        OFFSET 2.68224 19.2634 -4.8768
        CHANNELS 3 Zrotation Xrotation Yrotation
        JOINT lShldr
        {
          OFFSET 8.77824 -1.95073 1.46304
          CHANNELS 3 Zrotation Xrotation Yrotation
          JOINT lForeArm
          {
            OFFSET 28.1742 -1.7115 0.48768
            CHANNELS 3 Zrotation Xrotation Yrotation
            JOINT lHand
            {
              OFFSET 22.5879 0.773209 7.07136
              CHANNELS 3 Zrotation Xrotation Yrotation
              JOINT lThumb1
              {
                OFFSET 1.2192 -0.487915 3.41376
                CHANNELS 3 Zrotation Xrotation Yrotation
                JOINT lThumb2
                {
                  OFFSET 3.37035 -0.52449 3.41376
                  CHANNELS 3 Zrotation Xrotation Yrotation
                  End Site
                  {
                    OFFSET 1.78271 -1.18214 1.43049
                  }
                }
              }
              JOINT lIndex1
              {
                OFFSET 7.75947 0.938293 5.60832
                CHANNELS 3 Zrotation Xrotation Yrotation
                JOINT lIndex2
                {
                  OFFSET 2.54057 -0.884171 1.56538
                  CHANNELS 3 Zrotation Xrotation Yrotation
                  End Site
                  {
                    OFFSET 1.62519 -0.234802 1.16502
                  }
                }
              }
              JOINT lMid1
              {
                OFFSET 8.24714 1.18213 3.41376
                CHANNELS 3 Zrotation Xrotation Yrotation
                JOINT lMid2
                {
                  OFFSET 3.10165 -0.590103 1.0647
                  CHANNELS 3 Zrotation Xrotation Yrotation
                  End Site
                  {
                    OFFSET 2.48547 -0.328903 0.83742
                  }
                }
              }
              JOINT lRing1
              {
                OFFSET 8.82822 0.546677 1.51678
                CHANNELS 3 Zrotation Xrotation Yrotation
                JOINT lRing2
                {
                  OFFSET 2.60934 -0.819778 -0.0198488
                  CHANNELS 3 Zrotation Xrotation Yrotation
                  End Site
                  {
                    OFFSET 2.33842 -0.294052 0.168128
                  }
                }
              }
              JOINT lPinky1
              {
                OFFSET 8.27202 -0.0477905 -0.4584
                CHANNELS 3 Zrotation Xrotation Yrotation
                JOINT lPinky2
                {
                  OFFSET 1.82734 -0.647385 -0.700984
                  CHANNELS 3 Zrotation Xrotation Yrotation
                  End Site
                  {
                    OFFSET 1.69225 -0.51767 -0.607171
                  }
                }
              }
            }
          }
        }
      }
    }
  }
  JOINT rButtock
  {
    OFFSET -8.77824 4.35084 1.2192
    CHANNELS 3 Zrotation Xrotation Yrotation
    JOINT rThigh
    {
      OFFSET 0 -1.70687 -2.19456
      CHANNELS 3 Zrotation Xrotation Yrotation
      JOINT rShin
      {
        OFFSET 0 -36.8199 0.73152
        CHANNELS 3 Zrotation Xrotation Yrotation
        JOINT rFoot
        {
          OFFSET 0.73152 -45.1104 -5.12064
          CHANNELS 3 Zrotation Xrotation Yrotation
          End Site
          {
            OFFSET -1.1221 -3.69964 12.103
          }
        }
      }
    }
  }
  JOINT lButtock
  {
    OFFSET 8.77824 4.35084 1.2192
    CHANNELS 3 Zrotation Xrotation Yrotation
    JOINT lThigh
    {
      OFFSET 0 -1.70687 -2.19456
      CHANNELS 3 Zrotation Xrotation Yrotation
      JOINT lShin
      {
        OFFSET 0 -36.8199 0.73152
        CHANNELS 3 Zrotation Xrotation Yrotation
        JOINT lFoot
        {
          OFFSET -0.73152 -45.1104 -5.12064
          CHANNELS 3 Zrotation Xrotation Yrotation
          End Site
          {
            OFFSET 1.1221 -3.69964 12.103
          }
        }
      }
    }
  }
}
MOTION
Frames:	7
Frame Time:	0.00833333
10.3156 63.4524 -64.8519 0.0 0.0 0.0 -1.20509 -0.0037917 -0.0330403 -0.332176 -0.0022824 -0.0575396 -1.3568e-14 -7.95139e-16 1.2424e-16 -4.12913e-14 3.18055e-15 3.74274e-16 -0.0 0.0 0.0 -0.0 0.0 0.0 -7.05862e-15 -3.57191e-17 9.93923e-17 -1.41991e-13 -6.95746e-16 1.78906e-15 -2.50916e-12 7.20594e-13 6.67917e-14 -2.86735e-11 -8.99277e-13 1.68569e-13 -6.76423e-11 -3.86847e-13 5.1843e-13 -1.16821e-10 -6.67916e-13 8.77833e-13 -6.76357e-11 -3.86835e-13 5.12069e-13 7.73091 5.47488 0.417314 -6.76412e-11 -3.86636e-13 5.12069e-13 2.90554 0.965183 0.102902 -6.76325e-11 -3.86736e-13 5.04913e-13 10.2786 0.731801 0.0259123 -6.76444e-11 -3.86437e-13 5.05708e-13 2.22167 -0.733487 -0.20892 -6.95614e-15 -3.92134e-17 0.0 -1.48715e-13 -5.09386e-16 -5.96354e-16 -2.50215e-12 -7.7685e-13 2.8625e-14 -2.86763e-11 6.00007e-13 1.94014e-13 -6.76354e-11 -3.8682e-13 4.96167e-13 -1.16804e-10 -6.71097e-13 8.78628e-13 -6.76424e-11 -3.85245e-13 5.12069e-13 -7.73091 5.47488 -0.417314 -6.76361e-11 -3.86437e-13 4.99347e-13 -2.90554 0.965183 -0.102902 -6.7646e-11 -3.86338e-13 5.05708e-13 -10.2786 0.731801 -0.0259123 -6.76307e-11 -3.84847e-13 5.12069e-13 -2.22167 -0.733487 0.20892 -2.03217e-16 0.0 -3.88251e-19 -0.399067 -1.9209 -0.0104424 -0.00935121 -2.07854 -0.0772817 -0.514802 3.9968 0.140693 2.03217e-16 0.0 3.88251e-19 -1.4344 -5.89292 0.127777 -0.000944629 5.11635 -0.0408144 0.531728 0.774055 -0.0764501
9.74009 62.9414 -59.886 -3.6906 3.9955 -9.5872 0.919911 7.40543 -2.02431 0.580381 -2.44074 -0.397132 0.0819365 -1.87226 0.409344 -1.84399 0.026879 0.775869 -0.0 0.0 0.0 -0.0 0.0 0.0 -3.64998e-14 3.99848e-14 4.60447e-14 21.9991 7.03268 -8.56702 -16.381 -13.7643 14.8499 0.0208122 -3.20671 -0.448143 -1.44502e-10 3.62482e-10 2.67068e-10 -2.52732e-10 6.31048e-10 4.60863e-10 -1.44497e-10 3.62483e-10 2.67057e-10 7.73091 5.47488 0.417314 -1.44502e-10 3.62482e-10 2.67062e-10 2.90554 0.965183 0.102902 -1.44494e-10 3.62482e-10 2.67057e-10 10.2786 0.731801 0.0259123 -1.44504e-10 3.62483e-10 2.6706e-10 2.22167 -0.733487 -0.20892 -3.64441e-14 3.99841e-14 4.5875e-14 -20.7578 14.0913 1.90731 28.2719 -25.6204 -13.1749 -0.00273018 -1.17079 0.164423 8.02738e-11 -2.06885e-09 -3.55198e-10 1.39658e-10 -3.57823e-09 -6.13506e-10 8.02663e-11 -2.06885e-09 -3.55184e-10 -7.73091 5.47488 -0.417314 8.02739e-11 -2.06885e-09 -3.55195e-10 -2.90554 0.965183 -0.102902 8.02641e-11 -2.06885e-09 -3.55193e-10 -10.2786 0.731801 -0.0259123 8.028e-11 -2.06885e-09 -3.55191e-10 -2.22167 -0.733487 0.20892 -2.03217e-16 0.0 -3.88251e-19 -0.313328 -13.8873 -1.6904 -0.0614898 7.44475 -0.0334829 -0.579326 3.14855 -2.59219 2.03217e-16 0.0 3.88251e-19 0.868285 -13.8182 0.926126 -0.168525 30.8767 -0.341569 0.315303 -1.7366 -2.43342
9.61769 63.0155 -56.812 -3.8376 4.6639 -10.3255 3.74473 15.1577 -4.26543 1.51277 -4.99806 -0.765402 0.215988 -3.86232 0.865265 -3.81519 0.0390615 1.63133 -0.0 0.0 0.0 -0.0 0.0 0.0 -6.9741e-14 8.48139e-14 9.92215e-14 47.5785 13.9743 -18.0764 -25.627 -25.1181 33.1186 -0.0121915 -6.61822 -0.92971 -2.31374e-10 7.73728e-10 5.65205e-10 -4.06308e-10 1.3469e-09 9.75389e-10 -2.31371e-10 7.73731e-10 5.65189e-10 7.73091 5.47488 0.417314 -2.31375e-10 7.73729e-10 5.65201e-10 2.90554 0.965183 0.102902 -2.31367e-10 7.73729e-10 5.65197e-10 10.2786 0.731801 0.0259123 -2.31377e-10 7.7373e-10 5.65203e-10 2.22167 -0.733487 -0.20892 -6.97359e-14 8.48162e-14 9.89761e-14 -43.861 28.9743 4.32202 40.4842 -47.4116 -37.6155 0.00175862 -2.42751 0.341151 2.32167e-10 -4.25344e-09 -7.4618e-10 4.03042e-10 -7.35616e-09 -1.28882e-09 2.32159e-10 -4.25343e-09 -7.46168e-10 -7.73091 5.47488 -0.417314 2.32168e-10 -4.25344e-09 -7.46177e-10 -2.90554 0.965183 -0.102902 2.32158e-10 -4.25344e-09 -7.46179e-10 -10.2786 0.731801 -0.0259123 2.32175e-10 -4.25344e-09 -7.46183e-10 -2.22167 -0.733487 0.20892 -2.03217e-16 0.0 -3.88251e-19 -1.07635 -26.5353 -3.74509 -0.132836 17.3154 0.00919295 -0.75372 2.08446 -5.50699 2.03217e-16 0.0 3.88251e-19 3.52998 -22.1244 1.83441 0.194573 58.0949 -1.05876 -0.132977 -4.36954 -4.9349
9.45921 63.0672 -53.8008 -4.2041 5.3342 -11.1963 6.81624 22.1112 -6.43091 2.31815 -7.31655 -1.08406 0.326389 -5.61564 1.23329 -5.53417 0.0805778 2.32761 -0.0 0.0 0.0 -0.0 0.0 0.0 -9.53823e-14 1.20026e-13 1.37935e-13 72.374 19.1682 -27.1218 -27.7059 -29.5819 51.9774 -0.089864 -9.61777 -1.36146 -2.98222e-10 1.08822e-09 8.00167e-10 -5.24553e-10 1.89448e-09 1.38083e-09 -2.9822e-10 1.08822e-09 8.00147e-10 7.73091 5.47488 0.417314 -2.98224e-10 1.08822e-09 8.00163e-10 2.90554 0.965183 0.102902 -2.98216e-10 1.08822e-09 8.00162e-10 10.2786 0.731801 0.0259123 -2.98225e-10 1.08822e-09 8.0017e-10 2.22167 -0.733487 -0.20892 -9.542e-14 1.20031e-13 1.37625e-13 -65.9083 42.0526 7.48361 31.1675 -52.8872 -74.6357 0.0120006 -3.51225 0.494095 3.76092e-10 -6.20579e-09 -1.06659e-09 6.52582e-10 -1.07333e-08 -1.84227e-09 3.76084e-10 -6.20577e-09 -1.06658e-09 -7.73091 5.47488 -0.417314 3.76094e-10 -6.20579e-09 -1.06658e-09 -2.90554 0.965183 -0.102902 3.76084e-10 -6.20579e-09 -1.06659e-09 -10.2786 0.731801 -0.0259123 3.76101e-10 -6.20579e-09 -1.0666e-09 -2.22167 -0.733487 0.20892 -2.03217e-16 0.0 -3.88251e-19 -2.72243 -37.6751 -6.19796 -0.21173 26.4913 0.0612958 -0.950786 1.44729 -8.0481 2.03217e-16 0.0 3.88251e-19 6.22798 -29.6443 2.81206 4.93694 82.3571 -6.01225 -0.739006 -6.70986 -7.19355
9.34613 63.0032 -50.7217 -4.5511 6.0465 -12.1621 9.30068 27.1779 -8.00994 2.86975 -9.0391 -1.27133 0.31322 -6.77846 1.37582 -6.6226 0.195433 2.62592 -0.0 0.0 0.0 -0.0 0.0 0.0 -1.02024e-13 1.31195e-13 1.40491e-13 90.5659 21.9014 -33.5962 -27.5882 -28.5522 64.9427 -0.167632 -11.5898 -1.65165 -3.15009e-10 1.16082e-09 8.77191e-10 -5.54472e-10 2.02135e-09 1.51358e-09 -3.15008e-10 1.16083e-09 8.77168e-10 7.73091 5.47488 0.417314 -3.15011e-10 1.16082e-09 8.77187e-10 2.90554 0.965183 0.102902 -3.15004e-10 1.16082e-09 8.77187e-10 10.2786 0.731801 0.0259123 -3.15012e-10 1.16082e-09 8.77197e-10 2.22167 -0.733487 -0.20892 -1.02085e-13 1.31201e-13 1.40143e-13 -82.6621 50.8021 10.9853 25.983 -46.3056 -96.199 0.0213453 -4.16717 0.586703 5.00096e-10 -7.57753e-09 -1.21056e-09 8.67515e-10 -1.31086e-08 -2.09109e-09 5.00087e-10 -7.5775e-09 -1.21055e-09 -7.73091 5.47488 -0.417314 5.00098e-10 -7.57753e-09 -1.21056e-09 -2.90554 0.965183 -0.102902 5.00089e-10 -7.57753e-09 -1.21056e-09 -10.2786 0.731801 -0.0259123 5.00106e-10 -7.57752e-09 -1.21058e-09 -2.22167 -0.733487 0.20892 -2.03217e-16 0.0 -3.88251e-19 -4.65559 -45.1719 -8.61378 -0.288535 33.9302 0.134033 -0.958481 1.86542 -9.66068 2.03217e-16 0.0 3.88251e-19 8.50239 -35.2172 3.73348 172.937 80.5593 -174.092 -1.3045 -8.36452 -8.80007
9.23967 62.8697 -47.6019 -4.9286 6.6974 -13.2139 10.2207 29.7281 -8.52389 3.14796 -9.95517 -1.29151 0.105964 -7.12043 1.19479 -6.81992 0.460607 2.36011 -0.0 0.0 0.0 -0.0 0.0 0.0 -7.49632e-14 1.04642e-13 7.66156e-14 97.6431 22.4662 -35.8137 -27.6238 -27.288 69.6906 -0.195261 -12.1178 -1.73079 -2.38805e-10 7.68083e-10 7.28791e-10 -4.20948e-10 1.34009e-09 1.2571e-09 -2.38804e-10 7.68088e-10 7.2877e-10 7.73091 5.47488 0.417314 -2.38807e-10 7.68085e-10 7.28788e-10 2.90554 0.965183 0.102902 -2.388e-10 7.68086e-10 7.28788e-10 10.2786 0.731801 0.0259123 -2.38809e-10 7.68087e-10 7.28798e-10 2.22167 -0.733487 -0.20892 -7.50166e-14 1.04647e-13 7.62681e-14 -89.6118 53.7974 13.085 26.0729 -42.2974 -101.842 0.0237267 -4.25311 0.598913 6.32244e-10 -7.98774e-09 -1.10169e-09 1.09639e-09 -1.38248e-08 -1.90346e-09 6.32234e-10 -7.98772e-09 -1.10168e-09 -7.73091 5.47488 -0.417314 6.32245e-10 -7.98774e-09 -1.10169e-09 -2.90554 0.965183 -0.102902 6.32237e-10 -7.98774e-09 -1.1017e-09 -10.2786 0.731801 -0.0259123 6.32253e-10 -7.98774e-09 -1.10171e-09 -2.22167 -0.733487 0.20892 -2.03217e-16 0.0 -3.88251e-19 -5.77604 -47.6018 -10.0068 -0.36027 38.8909 0.232389 -0.526865 4.2803 -9.93437 2.03217e-16 0.0 3.88251e-19 9.77734 -37.9782 4.29634 175.156 73.6341 -176.308 -1.62635 -9.04827 -9.49294
9.08601 63.0702 -44.7757 -5.1487 7.4496 -14.3564 9.85641 30.5029 -8.16819 3.23512 -10.2941 -1.18971 -0.240327 -6.87558 0.782585 -6.37355 0.831133 1.69169 -0.0 0.0 0.0 -0.0 0.0 0.0 -2.41675e-14 5.13377e-14 -3.3958e-14 96.4276 21.8191 -34.8558 -27.6449 -27.592 69.448 -0.177774 -11.6149 -1.65658 -9.72698e-11 4.89925e-11 4.19579e-10 -1.72575e-10 9.20354e-11 7.22955e-10 -9.72692e-11 4.89966e-11 4.19563e-10 7.73091 5.47488 0.417314 -9.72719e-11 4.89954e-11 4.19576e-10 2.90554 0.965183 0.102902 -9.72655e-11 4.8996e-11 4.19577e-10 10.2786 0.731801 0.0259123 -9.72758e-11 4.89971e-11 4.19587e-10 2.22167 -0.733487 -0.20892 -2.41916e-14 5.134e-14 -3.42779e-14 -88.6132 52.7837 13.3459 25.9724 -42.821 -101.452 0.0204299 -3.93107 0.553407 7.68493e-10 -7.71823e-09 -8.12506e-10 1.33224e-09 -1.33682e-08 -1.40457e-09 7.68482e-10 -7.71822e-09 -8.12494e-10 -7.73091 5.47488 -0.417314 7.68492e-10 -7.71824e-09 -8.125e-10 -2.90554 0.965183 -0.102902 7.68486e-10 -7.71823e-09 -8.12507e-10 -10.2786 0.731801 -0.0259123 7.685e-10 -7.71823e-09 -8.12519e-10 -2.22167 -0.733487 0.20892 -2.03217e-16 0.0 -3.88251e-19 -5.81064 -46.4693 -10.2539 -0.42912 42.0835 0.350472 0.131269 8.11116 -9.2827 2.03217e-16 0.0 3.88251e-19 10.2347 -38.7423 4.53053 175.126 73.8785 -176.242 -1.7259 -9.05072 -9.52147
